<?xml version="1.0" encoding="utf-8"?>
<!-- Generator: Adobe Illustrator 26.3.1, SVG Export Plug-In . SVG Version: 6.00 Build 0)  -->
<svg version="1.1" id="Layer_1" xmlns="http://www.w3.org/2000/svg" xmlns:xlink="http://www.w3.org/1999/xlink" x="0px" y="0px"
	 viewBox="0 0 1920 1080" style="enable-background:new 0 0 1920 1080;" xml:space="preserve">
<style type="text/css">
	.st0{fill-rule:evenodd;clip-rule:evenodd;fill:#FFFFFF;}
</style>
<path class="st0" d="M1020.2,264.2c36.3,0,73.1,17.5,106.1,50.7c39.5,39.6,69.9,98,84.8,158.8c-23.9,7.7-40.2,24.1-48.7,40.2v-39.9
	h-45.9v220.6h45.9v-118c0-22.5,5.5-39.6,16.5-51.3c10-10.6,22.9-16.4,38.8-17.3c2.3,15.7,3.4,31.3,3.4,46.7
	c0,68.4-26.9,134.2-74.8,183c-49,50.3-115.2,78-186.3,78c-73.5,0-140.3-23.7-188.2-66.7c-23-20.5-41.4-45.7-54-73.9
	c-2.6-5.9-5-11.9-7.1-18c3-4,5.6-8.2,8-12.6c4.6-8.5,8.1-17.5,10.3-26.9h-27.8c-1.2-8.1-1.9-16.3-2.1-24.5h33.4
	c0.2-3,0.2-6.1,0.2-9.2c0-23-4.7-43.1-14-60.2c-1.3-2.5-2.8-5-4.4-7.4c12.4-21.6,32.1-36.6,57.5-52.3v230.7h45.8V436.8
	c14.4-8.6,29.8-18.3,45.7-29.5c53.8-37.9,77.4-74,94.7-100.3l0.1-0.1C977.5,277.6,986.2,264.2,1020.2,264.2z M1020.3,250.6
	c94.6,0,176.2,104.7,204.2,219.9c5-0.8,10.4-1.2,15.9-1.2c25.8,0,46.4,8.3,62,25c15.6,16.7,23.4,40.4,23.4,71.3v129.2H1280V570.4
	c0-19.8-5.1-35.2-15.3-46.1c-8.4-9-19.4-14.3-32.9-15.8c2.1,15.5,3.2,31,3.2,46.3c-0.4,147.2-117.8,274.6-274.7,274.6
	c-125.9,0-223.7-65.6-259.7-160.6c-6.1,5.9-13,11-20.5,15.2c-16.5,9.1-35.4,13.6-56.8,13.6s-40.4-4.5-56.8-13.6
	c-16.5-9.1-29.9-22.8-38.7-39.3c-9.3-17.1-14-37.3-14-60.6c0-23,4.7-43.1,14-60.2c8.8-16.6,22.3-30.3,38.8-39.4
	c16.5-9.1,35.4-13.6,56.8-13.6c21.4,0,40.3,4.5,56.8,13.6c9.6,5.3,18.2,12.2,25.5,20.4c15.1-23.5,38.1-39.5,66.4-56.6v-50.5h45.8
	V421c12.1-7.4,24.8-15.5,37.9-24.8c51.6-36.4,74-70.6,91.1-96.6c19.5-29.7,32.1-48.9,73.3-48.9H1020.3z M685.7,593.2H558.6
	c0.8,22.8,7.1,39.6,18.9,50.6c11.8,11,28.4,16.5,45.8,16.5s34-5.5,45.8-16.5c7.4-7.1,12.7-16.2,15.3-26.1h3.4
	C686.6,609.7,686,601.5,685.7,593.2z M452,493.4c18.7,15.2,30.4,35.7,35,61.6h-48.5c-2.7-13.9-9.2-24.8-19.5-32.7
	c-10.3-7.9-23.2-11.8-38.8-11.8c-8.3-0.2-16.5,1.3-24.1,4.6c-7.6,3.2-14.5,8-20.1,14.1c-11.8,12.5-17.7,30.7-17.7,54.8
	c0,24.1,5.9,42.4,17.7,55c5.6,6.1,12.4,11,20,14.2c7.6,3.3,15.8,4.8,24.1,4.6c15.5,0,28.4-4,38.8-12.1c10.3-8,16.8-19,19.6-32.9H487
	c-4.6,26-16.2,46.6-35,61.8c-18.8,15.2-42.5,22.9-71.1,22.9c-21.4,0-40.3-4.5-56.8-13.6c-16.5-9.1-29.9-22.8-38.8-39.4
	c-9.3-17.1-14-37.3-14-60.6c0-23,4.7-43.1,14-60.2c8.8-16.6,22.3-30.3,38.8-39.4c16.5-9.1,35.4-13.6,56.8-13.6
	C409.6,470.7,433.3,478.3,452,493.4z M1066.7,523.7c-9.3-16.8-23.2-30.4-40.1-39.4c-17.8-9.3-37.7-13.9-57.7-13.6
	c-21.4,0-40.6,4.5-57.6,13.6c-16.9,9-30.8,22.7-40.1,39.4c-9.8,17.1-14.6,37.2-14.6,60.2s4.9,43.2,14.6,60.4
	c9.3,16.8,23.2,30.5,40.1,39.6c17,9.1,36.2,13.6,57.6,13.6c20.1,0.3,39.9-4.4,57.7-13.6c16.9-8.9,30.9-22.6,40.1-39.4
	c9.6-17.1,14.5-37.3,14.5-60.6C1081.2,560.9,1076.4,540.9,1066.7,523.7z M1025.2,624.9c-5.4,10.3-13.7,18.8-23.9,24.5
	c-10,5.3-21.2,8-32.5,8c-11.3,0-22.5-2.8-32.5-8c-10.2-5.6-18.5-14.2-23.9-24.5c-6-11-9-24.6-9-41c0-16.1,3-29.6,9-40.7
	c5.3-10.4,13.7-19,23.9-24.7c10-5.3,21.2-8,32.5-8c11.3,0,22.5,2.8,32.5,8c10.2,5.7,18.5,14.3,23.9,24.7c6,11.1,9,24.7,9,40.7
	C1034.2,600.3,1031.2,613.9,1025.2,624.9z M1396.6,382.4c-8.8,0-15.9,2.6-21.3,7.6c-2.6,2.5-4.7,5.4-6.1,8.8
	c-1.4,3.3-2,6.9-1.9,10.5c-0.1,3.5,0.5,7.1,1.9,10.3c1.4,3.3,3.5,6.2,6.1,8.5c5.4,4.8,12.4,7.2,21.3,7.2c8.8,0,16-2.4,21.5-7.2
	c2.7-2.3,4.8-5.2,6.2-8.5c1.4-3.3,2.1-6.8,2-10.4c0.1-3.6-0.6-7.2-2-10.5c-1.4-3.3-3.5-6.3-6.2-8.7
	C1412.6,384.9,1405.4,382.4,1396.6,382.4z M1419.5,473.6h-45.8v221.2h45.8V473.6z M578.2,523.7c-9.9,9-16.1,21.6-18.6,37.7h127.1
	c-2.5-16.1-8.7-28.7-18.6-37.7c-12-11-27-16.5-45-16.5C605.3,507.3,590.3,512.8,578.2,523.7z M1598.5,538.1h44.6
	c0-39.3-35.7-68.9-90.5-68.8c-43.8,0-86.8,21.7-86.8,62c0,39.1,31.1,48.5,77,62.3c1.4,0.4,2.8,0.8,4.1,1.2c2.8,0.8,5.5,1.6,8.1,2.4
	c33,9.9,49.7,14.9,49.7,36.4c0,20-26.1,27-50,27c-23.3,0-51.9-12.9-53-37.5h-46.8c0,46.2,46.3,74,101.1,74
	c45.2,0,92.6-20.6,92.6-61.9c0-44.4-33.9-56.3-81-69.7c-36-10.3-55.8-16.4-55.8-34.8c0-17.8,20.9-27.2,39.2-27.2
	C1574.9,503.4,1598.5,514.7,1598.5,538.1z"/>
</svg>
