<?xml version="1.0" encoding="utf-8" standalone="no"?>
<!DOCTYPE svg PUBLIC "-//W3C//DTD SVG 1.1//EN"
  "http://www.w3.org/Graphics/SVG/1.1/DTD/svg11.dtd">
<svg xmlns:xlink="http://www.w3.org/1999/xlink" width="720pt" height="720pt" viewBox="0 0 720 720" xmlns="http://www.w3.org/2000/svg" version="1.1">
 <metadata>
  <rdf:RDF xmlns:dc="http://purl.org/dc/elements/1.1/" xmlns:cc="http://creativecommons.org/ns#" xmlns:rdf="http://www.w3.org/1999/02/22-rdf-syntax-ns#">
   <cc:Work>
    <dc:type rdf:resource="http://purl.org/dc/dcmitype/StillImage"/>
    <dc:date>2025-04-04T07:29:17.366882</dc:date>
    <dc:format>image/svg+xml</dc:format>
    <dc:creator>
     <cc:Agent>
      <dc:title>Matplotlib v3.6.3, https://matplotlib.org/</dc:title>
     </cc:Agent>
    </dc:creator>
   </cc:Work>
  </rdf:RDF>
 </metadata>
 <defs>
  <style type="text/css">*{stroke-linejoin: round; stroke-linecap: butt}</style>
 </defs>
 <g id="figure_1">
  <g id="patch_1">
   <path d="M 0 720 
L 720 720 
L 720 0 
L 0 0 
z
" style="fill: #ffffff"/>
  </g>
  <g id="axes_1">
   <g id="patch_2">
    <path d="M 360 429.134118 
C 370.61062 429.134118 380.788085 424.918474 388.290926 417.415632 
C 395.793768 409.912791 400.009412 399.735326 400.009412 389.124706 
C 400.009412 378.514086 395.793768 368.336621 388.290926 360.83378 
C 380.788085 353.330938 370.61062 349.115294 360 349.115294 
C 349.38938 349.115294 339.211915 353.330938 331.709074 360.83378 
C 324.206232 368.336621 319.990588 378.514086 319.990588 389.124706 
C 319.990588 399.735326 324.206232 409.912791 331.709074 417.415632 
C 339.211915 424.918474 349.38938 429.134118 360 429.134118 
z
" clip-path="url(#p743b05c339)" style="fill: #b7d4ea; opacity: 0.6; stroke: #000000; stroke-linejoin: miter"/>
   </g>
   <g id="patch_3">
    <path d="M 360 469.143529 
C 381.22124 469.143529 401.57617 460.712241 416.581853 445.706559 
C 431.587535 430.700876 440.018824 410.345946 440.018824 389.124706 
C 440.018824 367.903466 431.587535 347.548536 416.581853 332.542853 
C 401.57617 317.53717 381.22124 309.105882 360 309.105882 
C 338.77876 309.105882 318.42383 317.53717 303.418147 332.542853 
C 288.412465 347.548536 279.981176 367.903466 279.981176 389.124706 
C 279.981176 410.345946 288.412465 430.700876 303.418147 445.706559 
C 318.42383 460.712241 338.77876 469.143529 360 469.143529 
z
" clip-path="url(#p743b05c339)" style="fill: #8dc1dd; opacity: 0.6; stroke: #000000; stroke-linejoin: miter"/>
   </g>
   <g id="patch_4">
    <path d="M 360 509.152941 
C 391.83186 509.152941 422.364255 496.506009 444.872779 473.997485 
C 467.381303 451.488961 480.028235 420.956566 480.028235 389.124706 
C 480.028235 357.292846 467.381303 326.760451 444.872779 304.251927 
C 422.364255 281.743403 391.83186 269.096471 360 269.096471 
C 328.16814 269.096471 297.635745 281.743403 275.127221 304.251927 
C 252.618697 326.760451 239.971765 357.292846 239.971765 389.124706 
C 239.971765 420.956566 252.618697 451.488961 275.127221 473.997485 
C 297.635745 496.506009 328.16814 509.152941 360 509.152941 
z
" clip-path="url(#p743b05c339)" style="fill: #60a7d2; opacity: 0.6; stroke: #000000; stroke-linejoin: miter"/>
   </g>
   <g id="patch_5">
    <path d="M 360 549.162353 
C 402.44248 549.162353 443.15234 532.299777 473.163705 502.288411 
C 503.175071 472.277046 520.037647 431.567186 520.037647 389.124706 
C 520.037647 346.682226 503.175071 305.972366 473.163705 275.961 
C 443.15234 245.949635 402.44248 229.087059 360 229.087059 
C 317.55752 229.087059 276.84766 245.949635 246.836295 275.961 
C 216.824929 305.972366 199.962353 346.682226 199.962353 389.124706 
C 199.962353 431.567186 216.824929 472.277046 246.836295 502.288411 
C 276.84766 532.299777 317.55752 549.162353 360 549.162353 
z
" clip-path="url(#p743b05c339)" style="fill: #3b8bc2; opacity: 0.6; stroke: #000000; stroke-linejoin: miter"/>
   </g>
   <g id="patch_6">
    <path d="M 360 589.171765 
C 413.0531 589.171765 463.940425 568.093545 501.454632 530.579338 
C 538.968839 493.065131 560.047059 442.177806 560.047059 389.124706 
C 560.047059 336.071606 538.968839 285.184281 501.454632 247.670074 
C 463.940425 210.155867 413.0531 189.077647 360 189.077647 
C 306.9469 189.077647 256.059575 210.155867 218.545368 247.670074 
C 181.031161 285.184281 159.952941 336.071606 159.952941 389.124706 
C 159.952941 442.177806 181.031161 493.065131 218.545368 530.579338 
C 256.059575 568.093545 306.9469 589.171765 360 589.171765 
z
" clip-path="url(#p743b05c339)" style="fill: #1d6cb1; opacity: 0.6; stroke: #000000; stroke-linejoin: miter"/>
   </g>
   <g id="patch_7">
    <path d="M 360 629.181176 
C 423.66372 629.181176 484.72851 603.887312 529.745558 558.870264 
C 574.762606 513.853216 600.056471 452.788426 600.056471 389.124706 
C 600.056471 325.460986 574.762606 264.396196 529.745558 219.379148 
C 484.72851 174.362099 423.66372 149.068235 360 149.068235 
C 296.33628 149.068235 235.27149 174.362099 190.254442 219.379148 
C 145.237394 264.396196 119.943529 325.460986 119.943529 389.124706 
C 119.943529 452.788426 145.237394 513.853216 190.254442 558.870264 
C 235.27149 603.887312 296.33628 629.181176 360 629.181176 
z
" clip-path="url(#p743b05c339)" style="fill: #084e98; opacity: 0.6; stroke: #000000; stroke-linejoin: miter"/>
   </g>
   <g id="patch_8">
    <path d="M 360 669.190588 
C 434.27434 669.190588 505.516595 639.68108 558.036485 587.16119 
C 610.556374 534.641301 640.065882 463.399046 640.065882 389.124706 
C 640.065882 314.850366 610.556374 243.608111 558.036485 191.088221 
C 505.516595 138.568332 434.27434 109.058824 360 109.058824 
C 285.72566 109.058824 214.483405 138.568332 161.963515 191.088221 
C 109.443626 243.608111 79.934118 314.850366 79.934118 389.124706 
C 79.934118 463.399046 109.443626 534.641301 161.963515 587.16119 
C 214.483405 639.68108 285.72566 669.190588 360 669.190588 
z
" clip-path="url(#p743b05c339)" style="fill: #08306b; opacity: 0.6; stroke: #000000; stroke-linejoin: miter"/>
   </g>
   <g id="text_1">
    <!-- Sentimientos -->
    <g transform="translate(311.469375 342.410759) scale(0.13 -0.13)">
     <defs>
      <path id="DejaVuSans-Bold-53" d="M 3834 4519 
L 3834 3531 
Q 3450 3703 3084 3790 
Q 2719 3878 2394 3878 
Q 1963 3878 1756 3759 
Q 1550 3641 1550 3391 
Q 1550 3203 1689 3098 
Q 1828 2994 2194 2919 
L 2706 2816 
Q 3484 2659 3812 2340 
Q 4141 2022 4141 1434 
Q 4141 663 3683 286 
Q 3225 -91 2284 -91 
Q 1841 -91 1394 -6 
Q 947 78 500 244 
L 500 1259 
Q 947 1022 1364 901 
Q 1781 781 2169 781 
Q 2563 781 2772 912 
Q 2981 1044 2981 1288 
Q 2981 1506 2839 1625 
Q 2697 1744 2272 1838 
L 1806 1941 
Q 1106 2091 782 2419 
Q 459 2747 459 3303 
Q 459 4000 909 4375 
Q 1359 4750 2203 4750 
Q 2588 4750 2994 4692 
Q 3400 4634 3834 4519 
z
" transform="scale(0.015625)"/>
      <path id="DejaVuSans-Bold-65" d="M 4031 1759 
L 4031 1441 
L 1416 1441 
Q 1456 1047 1700 850 
Q 1944 653 2381 653 
Q 2734 653 3104 758 
Q 3475 863 3866 1075 
L 3866 213 
Q 3469 63 3072 -14 
Q 2675 -91 2278 -91 
Q 1328 -91 801 392 
Q 275 875 275 1747 
Q 275 2603 792 3093 
Q 1309 3584 2216 3584 
Q 3041 3584 3536 3087 
Q 4031 2591 4031 1759 
z
M 2881 2131 
Q 2881 2450 2695 2645 
Q 2509 2841 2209 2841 
Q 1884 2841 1681 2658 
Q 1478 2475 1428 2131 
L 2881 2131 
z
" transform="scale(0.015625)"/>
      <path id="DejaVuSans-Bold-6e" d="M 4056 2131 
L 4056 0 
L 2931 0 
L 2931 347 
L 2931 1631 
Q 2931 2084 2911 2256 
Q 2891 2428 2841 2509 
Q 2775 2619 2662 2680 
Q 2550 2741 2406 2741 
Q 2056 2741 1856 2470 
Q 1656 2200 1656 1722 
L 1656 0 
L 538 0 
L 538 3500 
L 1656 3500 
L 1656 2988 
Q 1909 3294 2193 3439 
Q 2478 3584 2822 3584 
Q 3428 3584 3742 3212 
Q 4056 2841 4056 2131 
z
" transform="scale(0.015625)"/>
      <path id="DejaVuSans-Bold-74" d="M 1759 4494 
L 1759 3500 
L 2913 3500 
L 2913 2700 
L 1759 2700 
L 1759 1216 
Q 1759 972 1856 886 
Q 1953 800 2241 800 
L 2816 800 
L 2816 0 
L 1856 0 
Q 1194 0 917 276 
Q 641 553 641 1216 
L 641 2700 
L 84 2700 
L 84 3500 
L 641 3500 
L 641 4494 
L 1759 4494 
z
" transform="scale(0.015625)"/>
      <path id="DejaVuSans-Bold-69" d="M 538 3500 
L 1656 3500 
L 1656 0 
L 538 0 
L 538 3500 
z
M 538 4863 
L 1656 4863 
L 1656 3950 
L 538 3950 
L 538 4863 
z
" transform="scale(0.015625)"/>
      <path id="DejaVuSans-Bold-6d" d="M 3781 2919 
Q 3994 3244 4286 3414 
Q 4578 3584 4928 3584 
Q 5531 3584 5847 3212 
Q 6163 2841 6163 2131 
L 6163 0 
L 5038 0 
L 5038 1825 
Q 5041 1866 5042 1909 
Q 5044 1953 5044 2034 
Q 5044 2406 4934 2573 
Q 4825 2741 4581 2741 
Q 4263 2741 4089 2478 
Q 3916 2216 3909 1719 
L 3909 0 
L 2784 0 
L 2784 1825 
Q 2784 2406 2684 2573 
Q 2584 2741 2328 2741 
Q 2006 2741 1831 2477 
Q 1656 2213 1656 1722 
L 1656 0 
L 531 0 
L 531 3500 
L 1656 3500 
L 1656 2988 
Q 1863 3284 2130 3434 
Q 2397 3584 2719 3584 
Q 3081 3584 3359 3409 
Q 3638 3234 3781 2919 
z
" transform="scale(0.015625)"/>
      <path id="DejaVuSans-Bold-6f" d="M 2203 2784 
Q 1831 2784 1636 2517 
Q 1441 2250 1441 1747 
Q 1441 1244 1636 976 
Q 1831 709 2203 709 
Q 2569 709 2762 976 
Q 2956 1244 2956 1747 
Q 2956 2250 2762 2517 
Q 2569 2784 2203 2784 
z
M 2203 3584 
Q 3106 3584 3614 3096 
Q 4122 2609 4122 1747 
Q 4122 884 3614 396 
Q 3106 -91 2203 -91 
Q 1297 -91 786 396 
Q 275 884 275 1747 
Q 275 2609 786 3096 
Q 1297 3584 2203 3584 
z
" transform="scale(0.015625)"/>
      <path id="DejaVuSans-Bold-73" d="M 3272 3391 
L 3272 2541 
Q 2913 2691 2578 2766 
Q 2244 2841 1947 2841 
Q 1628 2841 1473 2761 
Q 1319 2681 1319 2516 
Q 1319 2381 1436 2309 
Q 1553 2238 1856 2203 
L 2053 2175 
Q 2913 2066 3209 1816 
Q 3506 1566 3506 1031 
Q 3506 472 3093 190 
Q 2681 -91 1863 -91 
Q 1516 -91 1145 -36 
Q 775 19 384 128 
L 384 978 
Q 719 816 1070 734 
Q 1422 653 1784 653 
Q 2113 653 2278 743 
Q 2444 834 2444 1013 
Q 2444 1163 2330 1236 
Q 2216 1309 1875 1350 
L 1678 1375 
Q 931 1469 631 1722 
Q 331 1975 331 2491 
Q 331 3047 712 3315 
Q 1094 3584 1881 3584 
Q 2191 3584 2531 3537 
Q 2872 3491 3272 3391 
z
" transform="scale(0.015625)"/>
     </defs>
     <use xlink:href="#DejaVuSans-Bold-53"/>
     <use xlink:href="#DejaVuSans-Bold-65" x="72.021484"/>
     <use xlink:href="#DejaVuSans-Bold-6e" x="139.84375"/>
     <use xlink:href="#DejaVuSans-Bold-74" x="211.035156"/>
     <use xlink:href="#DejaVuSans-Bold-69" x="258.837891"/>
     <use xlink:href="#DejaVuSans-Bold-6d" x="293.115234"/>
     <use xlink:href="#DejaVuSans-Bold-69" x="397.314453"/>
     <use xlink:href="#DejaVuSans-Bold-65" x="431.591797"/>
     <use xlink:href="#DejaVuSans-Bold-6e" x="499.414062"/>
     <use xlink:href="#DejaVuSans-Bold-74" x="570.605469"/>
     <use xlink:href="#DejaVuSans-Bold-6f" x="618.408203"/>
     <use xlink:href="#DejaVuSans-Bold-73" x="687.109375"/>
    </g>
   </g>
   <g id="text_2">
    <!-- Afectos -->
    <g transform="translate(332.438984 302.401347) scale(0.13 -0.13)">
     <defs>
      <path id="DejaVuSans-Bold-41" d="M 3419 850 
L 1538 850 
L 1241 0 
L 31 0 
L 1759 4666 
L 3194 4666 
L 4922 0 
L 3713 0 
L 3419 850 
z
M 1838 1716 
L 3116 1716 
L 2478 3572 
L 1838 1716 
z
" transform="scale(0.015625)"/>
      <path id="DejaVuSans-Bold-66" d="M 2841 4863 
L 2841 4128 
L 2222 4128 
Q 1984 4128 1890 4042 
Q 1797 3956 1797 3744 
L 1797 3500 
L 2753 3500 
L 2753 2700 
L 1797 2700 
L 1797 0 
L 678 0 
L 678 2700 
L 122 2700 
L 122 3500 
L 678 3500 
L 678 3744 
Q 678 4316 997 4589 
Q 1316 4863 1984 4863 
L 2841 4863 
z
" transform="scale(0.015625)"/>
      <path id="DejaVuSans-Bold-63" d="M 3366 3391 
L 3366 2478 
Q 3138 2634 2908 2709 
Q 2678 2784 2431 2784 
Q 1963 2784 1702 2511 
Q 1441 2238 1441 1747 
Q 1441 1256 1702 982 
Q 1963 709 2431 709 
Q 2694 709 2930 787 
Q 3166 866 3366 1019 
L 3366 103 
Q 3103 6 2833 -42 
Q 2563 -91 2291 -91 
Q 1344 -91 809 395 
Q 275 881 275 1747 
Q 275 2613 809 3098 
Q 1344 3584 2291 3584 
Q 2566 3584 2833 3536 
Q 3100 3488 3366 3391 
z
" transform="scale(0.015625)"/>
     </defs>
     <use xlink:href="#DejaVuSans-Bold-41"/>
     <use xlink:href="#DejaVuSans-Bold-66" x="77.392578"/>
     <use xlink:href="#DejaVuSans-Bold-65" x="120.898438"/>
     <use xlink:href="#DejaVuSans-Bold-63" x="188.720703"/>
     <use xlink:href="#DejaVuSans-Bold-74" x="247.998047"/>
     <use xlink:href="#DejaVuSans-Bold-6f" x="295.800781"/>
     <use xlink:href="#DejaVuSans-Bold-73" x="364.501953"/>
    </g>
   </g>
   <g id="text_3">
    <!-- Emociones -->
    <g transform="translate(320.868984 262.391936) scale(0.13 -0.13)">
     <defs>
      <path id="DejaVuSans-Bold-45" d="M 588 4666 
L 3834 4666 
L 3834 3756 
L 1791 3756 
L 1791 2888 
L 3713 2888 
L 3713 1978 
L 1791 1978 
L 1791 909 
L 3903 909 
L 3903 0 
L 588 0 
L 588 4666 
z
" transform="scale(0.015625)"/>
     </defs>
     <use xlink:href="#DejaVuSans-Bold-45"/>
     <use xlink:href="#DejaVuSans-Bold-6d" x="68.310547"/>
     <use xlink:href="#DejaVuSans-Bold-6f" x="172.509766"/>
     <use xlink:href="#DejaVuSans-Bold-63" x="241.210938"/>
     <use xlink:href="#DejaVuSans-Bold-69" x="300.488281"/>
     <use xlink:href="#DejaVuSans-Bold-6f" x="334.765625"/>
     <use xlink:href="#DejaVuSans-Bold-6e" x="403.466797"/>
     <use xlink:href="#DejaVuSans-Bold-65" x="474.658203"/>
     <use xlink:href="#DejaVuSans-Bold-73" x="542.480469"/>
    </g>
   </g>
   <g id="text_4">
    <!-- Relaciones -->
    <g transform="translate(320.519609 222.382524) scale(0.13 -0.13)">
     <defs>
      <path id="DejaVuSans-Bold-52" d="M 2297 2597 
Q 2675 2597 2839 2737 
Q 3003 2878 3003 3200 
Q 3003 3519 2839 3656 
Q 2675 3794 2297 3794 
L 1791 3794 
L 1791 2597 
L 2297 2597 
z
M 1791 1766 
L 1791 0 
L 588 0 
L 588 4666 
L 2425 4666 
Q 3347 4666 3776 4356 
Q 4206 4047 4206 3378 
Q 4206 2916 3982 2619 
Q 3759 2322 3309 2181 
Q 3556 2125 3751 1926 
Q 3947 1728 4147 1325 
L 4800 0 
L 3519 0 
L 2950 1159 
Q 2778 1509 2601 1637 
Q 2425 1766 2131 1766 
L 1791 1766 
z
" transform="scale(0.015625)"/>
      <path id="DejaVuSans-Bold-6c" d="M 538 4863 
L 1656 4863 
L 1656 0 
L 538 0 
L 538 4863 
z
" transform="scale(0.015625)"/>
      <path id="DejaVuSans-Bold-61" d="M 2106 1575 
Q 1756 1575 1579 1456 
Q 1403 1338 1403 1106 
Q 1403 894 1545 773 
Q 1688 653 1941 653 
Q 2256 653 2472 879 
Q 2688 1106 2688 1447 
L 2688 1575 
L 2106 1575 
z
M 3816 1997 
L 3816 0 
L 2688 0 
L 2688 519 
Q 2463 200 2181 54 
Q 1900 -91 1497 -91 
Q 953 -91 614 226 
Q 275 544 275 1050 
Q 275 1666 698 1953 
Q 1122 2241 2028 2241 
L 2688 2241 
L 2688 2328 
Q 2688 2594 2478 2717 
Q 2269 2841 1825 2841 
Q 1466 2841 1156 2769 
Q 847 2697 581 2553 
L 581 3406 
Q 941 3494 1303 3539 
Q 1666 3584 2028 3584 
Q 2975 3584 3395 3211 
Q 3816 2838 3816 1997 
z
" transform="scale(0.015625)"/>
     </defs>
     <use xlink:href="#DejaVuSans-Bold-52"/>
     <use xlink:href="#DejaVuSans-Bold-65" x="77.001953"/>
     <use xlink:href="#DejaVuSans-Bold-6c" x="144.824219"/>
     <use xlink:href="#DejaVuSans-Bold-61" x="179.101562"/>
     <use xlink:href="#DejaVuSans-Bold-63" x="246.582031"/>
     <use xlink:href="#DejaVuSans-Bold-69" x="305.859375"/>
     <use xlink:href="#DejaVuSans-Bold-6f" x="340.136719"/>
     <use xlink:href="#DejaVuSans-Bold-6e" x="408.837891"/>
     <use xlink:href="#DejaVuSans-Bold-65" x="480.029297"/>
     <use xlink:href="#DejaVuSans-Bold-73" x="547.851562"/>
    </g>
   </g>
   <g id="text_5">
    <!-- Interacciones Sociales -->
    <g transform="translate(278.158906 182.373112) scale(0.13 -0.13)">
     <defs>
      <path id="DejaVuSans-Bold-49" d="M 588 4666 
L 1791 4666 
L 1791 0 
L 588 0 
L 588 4666 
z
" transform="scale(0.015625)"/>
      <path id="DejaVuSans-Bold-72" d="M 3138 2547 
Q 2991 2616 2845 2648 
Q 2700 2681 2553 2681 
Q 2122 2681 1889 2404 
Q 1656 2128 1656 1613 
L 1656 0 
L 538 0 
L 538 3500 
L 1656 3500 
L 1656 2925 
Q 1872 3269 2151 3426 
Q 2431 3584 2822 3584 
Q 2878 3584 2943 3579 
Q 3009 3575 3134 3559 
L 3138 2547 
z
" transform="scale(0.015625)"/>
      <path id="DejaVuSans-Bold-20" transform="scale(0.015625)"/>
     </defs>
     <use xlink:href="#DejaVuSans-Bold-49"/>
     <use xlink:href="#DejaVuSans-Bold-6e" x="37.207031"/>
     <use xlink:href="#DejaVuSans-Bold-74" x="108.398438"/>
     <use xlink:href="#DejaVuSans-Bold-65" x="156.201172"/>
     <use xlink:href="#DejaVuSans-Bold-72" x="224.023438"/>
     <use xlink:href="#DejaVuSans-Bold-61" x="273.339844"/>
     <use xlink:href="#DejaVuSans-Bold-63" x="340.820312"/>
     <use xlink:href="#DejaVuSans-Bold-63" x="400.097656"/>
     <use xlink:href="#DejaVuSans-Bold-69" x="459.375"/>
     <use xlink:href="#DejaVuSans-Bold-6f" x="493.652344"/>
     <use xlink:href="#DejaVuSans-Bold-6e" x="562.353516"/>
     <use xlink:href="#DejaVuSans-Bold-65" x="633.544922"/>
     <use xlink:href="#DejaVuSans-Bold-73" x="701.367188"/>
     <use xlink:href="#DejaVuSans-Bold-20" x="760.888672"/>
     <use xlink:href="#DejaVuSans-Bold-53" x="795.703125"/>
     <use xlink:href="#DejaVuSans-Bold-6f" x="867.724609"/>
     <use xlink:href="#DejaVuSans-Bold-63" x="936.425781"/>
     <use xlink:href="#DejaVuSans-Bold-69" x="995.703125"/>
     <use xlink:href="#DejaVuSans-Bold-61" x="1029.980469"/>
     <use xlink:href="#DejaVuSans-Bold-6c" x="1097.460938"/>
     <use xlink:href="#DejaVuSans-Bold-65" x="1131.738281"/>
     <use xlink:href="#DejaVuSans-Bold-73" x="1199.560547"/>
    </g>
   </g>
   <g id="text_6">
    <!-- Comportamientos -->
    <g transform="translate(294.695312 142.3637) scale(0.13 -0.13)">
     <defs>
      <path id="DejaVuSans-Bold-43" d="M 4288 256 
Q 3956 84 3597 -3 
Q 3238 -91 2847 -91 
Q 1681 -91 1000 561 
Q 319 1213 319 2328 
Q 319 3447 1000 4098 
Q 1681 4750 2847 4750 
Q 3238 4750 3597 4662 
Q 3956 4575 4288 4403 
L 4288 3438 
Q 3953 3666 3628 3772 
Q 3303 3878 2944 3878 
Q 2300 3878 1931 3465 
Q 1563 3053 1563 2328 
Q 1563 1606 1931 1193 
Q 2300 781 2944 781 
Q 3303 781 3628 887 
Q 3953 994 4288 1222 
L 4288 256 
z
" transform="scale(0.015625)"/>
      <path id="DejaVuSans-Bold-70" d="M 1656 506 
L 1656 -1331 
L 538 -1331 
L 538 3500 
L 1656 3500 
L 1656 2988 
Q 1888 3294 2169 3439 
Q 2450 3584 2816 3584 
Q 3463 3584 3878 3070 
Q 4294 2556 4294 1747 
Q 4294 938 3878 423 
Q 3463 -91 2816 -91 
Q 2450 -91 2169 54 
Q 1888 200 1656 506 
z
M 2400 2772 
Q 2041 2772 1848 2508 
Q 1656 2244 1656 1747 
Q 1656 1250 1848 986 
Q 2041 722 2400 722 
Q 2759 722 2948 984 
Q 3138 1247 3138 1747 
Q 3138 2247 2948 2509 
Q 2759 2772 2400 2772 
z
" transform="scale(0.015625)"/>
     </defs>
     <use xlink:href="#DejaVuSans-Bold-43"/>
     <use xlink:href="#DejaVuSans-Bold-6f" x="73.388672"/>
     <use xlink:href="#DejaVuSans-Bold-6d" x="142.089844"/>
     <use xlink:href="#DejaVuSans-Bold-70" x="246.289062"/>
     <use xlink:href="#DejaVuSans-Bold-6f" x="317.871094"/>
     <use xlink:href="#DejaVuSans-Bold-72" x="386.572266"/>
     <use xlink:href="#DejaVuSans-Bold-74" x="435.888672"/>
     <use xlink:href="#DejaVuSans-Bold-61" x="483.691406"/>
     <use xlink:href="#DejaVuSans-Bold-6d" x="551.171875"/>
     <use xlink:href="#DejaVuSans-Bold-69" x="655.371094"/>
     <use xlink:href="#DejaVuSans-Bold-65" x="689.648438"/>
     <use xlink:href="#DejaVuSans-Bold-6e" x="757.470703"/>
     <use xlink:href="#DejaVuSans-Bold-74" x="828.662109"/>
     <use xlink:href="#DejaVuSans-Bold-6f" x="876.464844"/>
     <use xlink:href="#DejaVuSans-Bold-73" x="945.166016"/>
    </g>
   </g>
   <g id="text_7">
    <!-- Comunidad / Cultura -->
    <g transform="translate(284.964609 102.354289) scale(0.13 -0.13)">
     <defs>
      <path id="DejaVuSans-Bold-75" d="M 500 1363 
L 500 3500 
L 1625 3500 
L 1625 3150 
Q 1625 2866 1622 2436 
Q 1619 2006 1619 1863 
Q 1619 1441 1641 1255 
Q 1663 1069 1716 984 
Q 1784 875 1895 815 
Q 2006 756 2150 756 
Q 2500 756 2700 1025 
Q 2900 1294 2900 1772 
L 2900 3500 
L 4019 3500 
L 4019 0 
L 2900 0 
L 2900 506 
Q 2647 200 2364 54 
Q 2081 -91 1741 -91 
Q 1134 -91 817 281 
Q 500 653 500 1363 
z
" transform="scale(0.015625)"/>
      <path id="DejaVuSans-Bold-64" d="M 2919 2988 
L 2919 4863 
L 4044 4863 
L 4044 0 
L 2919 0 
L 2919 506 
Q 2688 197 2409 53 
Q 2131 -91 1766 -91 
Q 1119 -91 703 423 
Q 288 938 288 1747 
Q 288 2556 703 3070 
Q 1119 3584 1766 3584 
Q 2128 3584 2408 3439 
Q 2688 3294 2919 2988 
z
M 2181 722 
Q 2541 722 2730 984 
Q 2919 1247 2919 1747 
Q 2919 2247 2730 2509 
Q 2541 2772 2181 2772 
Q 1825 2772 1636 2509 
Q 1447 2247 1447 1747 
Q 1447 1247 1636 984 
Q 1825 722 2181 722 
z
" transform="scale(0.015625)"/>
      <path id="DejaVuSans-Bold-2f" d="M 1644 4666 
L 2338 4666 
L 691 -594 
L 0 -594 
L 1644 4666 
z
" transform="scale(0.015625)"/>
     </defs>
     <use xlink:href="#DejaVuSans-Bold-43"/>
     <use xlink:href="#DejaVuSans-Bold-6f" x="73.388672"/>
     <use xlink:href="#DejaVuSans-Bold-6d" x="142.089844"/>
     <use xlink:href="#DejaVuSans-Bold-75" x="246.289062"/>
     <use xlink:href="#DejaVuSans-Bold-6e" x="317.480469"/>
     <use xlink:href="#DejaVuSans-Bold-69" x="388.671875"/>
     <use xlink:href="#DejaVuSans-Bold-64" x="422.949219"/>
     <use xlink:href="#DejaVuSans-Bold-61" x="494.53125"/>
     <use xlink:href="#DejaVuSans-Bold-64" x="562.011719"/>
     <use xlink:href="#DejaVuSans-Bold-20" x="633.59375"/>
     <use xlink:href="#DejaVuSans-Bold-2f" x="668.408203"/>
     <use xlink:href="#DejaVuSans-Bold-20" x="704.931641"/>
     <use xlink:href="#DejaVuSans-Bold-43" x="739.746094"/>
     <use xlink:href="#DejaVuSans-Bold-75" x="813.134766"/>
     <use xlink:href="#DejaVuSans-Bold-6c" x="884.326172"/>
     <use xlink:href="#DejaVuSans-Bold-74" x="918.603516"/>
     <use xlink:href="#DejaVuSans-Bold-75" x="966.40625"/>
     <use xlink:href="#DejaVuSans-Bold-72" x="1037.597656"/>
     <use xlink:href="#DejaVuSans-Bold-61" x="1086.914062"/>
    </g>
   </g>
   <g id="text_8">
    <!-- Niveles de profundidad en el liderazgo afectivo -->
    <g style="fill: #333333" transform="translate(146.29625 23.04) scale(0.16 -0.16)">
     <defs>
      <path id="DejaVuSans-Bold-4e" d="M 588 4666 
L 1931 4666 
L 3628 1466 
L 3628 4666 
L 4769 4666 
L 4769 0 
L 3425 0 
L 1728 3200 
L 1728 0 
L 588 0 
L 588 4666 
z
" transform="scale(0.015625)"/>
      <path id="DejaVuSans-Bold-76" d="M 97 3500 
L 1216 3500 
L 2088 1081 
L 2956 3500 
L 4078 3500 
L 2700 0 
L 1472 0 
L 97 3500 
z
" transform="scale(0.015625)"/>
      <path id="DejaVuSans-Bold-7a" d="M 366 3500 
L 3419 3500 
L 3419 2719 
L 1575 800 
L 3419 800 
L 3419 0 
L 288 0 
L 288 781 
L 2131 2700 
L 366 2700 
L 366 3500 
z
" transform="scale(0.015625)"/>
      <path id="DejaVuSans-Bold-67" d="M 2919 594 
Q 2688 288 2409 144 
Q 2131 0 1766 0 
Q 1125 0 706 504 
Q 288 1009 288 1791 
Q 288 2575 706 3076 
Q 1125 3578 1766 3578 
Q 2131 3578 2409 3434 
Q 2688 3291 2919 2981 
L 2919 3500 
L 4044 3500 
L 4044 353 
Q 4044 -491 3511 -936 
Q 2978 -1381 1966 -1381 
Q 1638 -1381 1331 -1331 
Q 1025 -1281 716 -1178 
L 716 -306 
Q 1009 -475 1290 -558 
Q 1572 -641 1856 -641 
Q 2406 -641 2662 -400 
Q 2919 -159 2919 353 
L 2919 594 
z
M 2181 2772 
Q 1834 2772 1640 2515 
Q 1447 2259 1447 1791 
Q 1447 1309 1634 1061 
Q 1822 813 2181 813 
Q 2531 813 2725 1069 
Q 2919 1325 2919 1791 
Q 2919 2259 2725 2515 
Q 2531 2772 2181 2772 
z
" transform="scale(0.015625)"/>
     </defs>
     <use xlink:href="#DejaVuSans-Bold-4e"/>
     <use xlink:href="#DejaVuSans-Bold-69" x="83.691406"/>
     <use xlink:href="#DejaVuSans-Bold-76" x="117.96875"/>
     <use xlink:href="#DejaVuSans-Bold-65" x="183.154297"/>
     <use xlink:href="#DejaVuSans-Bold-6c" x="250.976562"/>
     <use xlink:href="#DejaVuSans-Bold-65" x="285.253906"/>
     <use xlink:href="#DejaVuSans-Bold-73" x="353.076172"/>
     <use xlink:href="#DejaVuSans-Bold-20" x="412.597656"/>
     <use xlink:href="#DejaVuSans-Bold-64" x="447.412109"/>
     <use xlink:href="#DejaVuSans-Bold-65" x="518.994141"/>
     <use xlink:href="#DejaVuSans-Bold-20" x="586.816406"/>
     <use xlink:href="#DejaVuSans-Bold-70" x="621.630859"/>
     <use xlink:href="#DejaVuSans-Bold-72" x="693.212891"/>
     <use xlink:href="#DejaVuSans-Bold-6f" x="742.529297"/>
     <use xlink:href="#DejaVuSans-Bold-66" x="811.230469"/>
     <use xlink:href="#DejaVuSans-Bold-75" x="854.736328"/>
     <use xlink:href="#DejaVuSans-Bold-6e" x="925.927734"/>
     <use xlink:href="#DejaVuSans-Bold-64" x="997.119141"/>
     <use xlink:href="#DejaVuSans-Bold-69" x="1068.701172"/>
     <use xlink:href="#DejaVuSans-Bold-64" x="1102.978516"/>
     <use xlink:href="#DejaVuSans-Bold-61" x="1174.560547"/>
     <use xlink:href="#DejaVuSans-Bold-64" x="1242.041016"/>
     <use xlink:href="#DejaVuSans-Bold-20" x="1313.623047"/>
     <use xlink:href="#DejaVuSans-Bold-65" x="1348.4375"/>
     <use xlink:href="#DejaVuSans-Bold-6e" x="1416.259766"/>
     <use xlink:href="#DejaVuSans-Bold-20" x="1487.451172"/>
     <use xlink:href="#DejaVuSans-Bold-65" x="1522.265625"/>
     <use xlink:href="#DejaVuSans-Bold-6c" x="1590.087891"/>
     <use xlink:href="#DejaVuSans-Bold-20" x="1624.365234"/>
     <use xlink:href="#DejaVuSans-Bold-6c" x="1659.179688"/>
     <use xlink:href="#DejaVuSans-Bold-69" x="1693.457031"/>
     <use xlink:href="#DejaVuSans-Bold-64" x="1727.734375"/>
     <use xlink:href="#DejaVuSans-Bold-65" x="1799.316406"/>
     <use xlink:href="#DejaVuSans-Bold-72" x="1867.138672"/>
     <use xlink:href="#DejaVuSans-Bold-61" x="1916.455078"/>
     <use xlink:href="#DejaVuSans-Bold-7a" x="1983.935547"/>
     <use xlink:href="#DejaVuSans-Bold-67" x="2042.138672"/>
     <use xlink:href="#DejaVuSans-Bold-6f" x="2113.720703"/>
     <use xlink:href="#DejaVuSans-Bold-20" x="2182.421875"/>
     <use xlink:href="#DejaVuSans-Bold-61" x="2217.236328"/>
     <use xlink:href="#DejaVuSans-Bold-66" x="2284.716797"/>
     <use xlink:href="#DejaVuSans-Bold-65" x="2328.222656"/>
     <use xlink:href="#DejaVuSans-Bold-63" x="2396.044922"/>
     <use xlink:href="#DejaVuSans-Bold-74" x="2455.322266"/>
     <use xlink:href="#DejaVuSans-Bold-69" x="2503.125"/>
     <use xlink:href="#DejaVuSans-Bold-76" x="2537.402344"/>
     <use xlink:href="#DejaVuSans-Bold-6f" x="2602.587891"/>
    </g>
   </g>
  </g>
 </g>
 <defs>
  <clipPath id="p743b05c339">
   <rect x="39.924706" y="29.04" width="640.150588" height="680.16"/>
  </clipPath>
 </defs>
</svg>
